<svg id="Layer_1" data-name="Layer 1" xmlns="http://www.w3.org/2000/svg" width="50" height="50" viewBox="0 0 50 50">
  <defs>
    <style>
      .cls-1 {
        fill: #fff;
      }
    </style>
  </defs>
  <path class="cls-1" d="M25,3A22,22,0,1,0,47,25,22,22,0,0,0,25,3Zm9.9,7.86a3,3,0,1,1,0,4.24A3,3,0,0,1,34.9,10.86ZM25,5a3,3,0,1,1-3,3A3,3,0,0,1,25,5ZM10.86,10.86a3,3,0,1,1,0,4.24A3,3,0,0,1,10.86,10.86ZM8,28a3,3,0,1,1,3-3A3,3,0,0,1,8,28Zm7.1,11.14a3,3,0,1,1,0-4.24A3,3,0,0,1,15.1,39.14ZM25,45a3,3,0,1,1,3-3A3,3,0,0,1,25,45Zm0-8A12,12,0,1,1,37,25,12,12,0,0,1,25,37Zm14.14,2.14a3,3,0,1,1,0-4.24A3,3,0,0,1,39.14,39.14ZM42,28a3,3,0,1,1,3-3A3,3,0,0,1,42,28Z"/>
</svg>
