<svg id="Layer_1" data-name="Layer 1" xmlns="http://www.w3.org/2000/svg" width="49" height="52" viewBox="0 0 49 52">
  <defs>
    <style>
      .cls-1, .cls-2 {
        fill: #fff;
      }

      .cls-1, .cls-3 {
        stroke: #fff;
        stroke-miterlimit: 10;
        stroke-width: 2px;
      }

      .cls-3 {
        fill: #23ff44;
      }
    </style>
  </defs>
  <path class="cls-1" d="M42.29,14.39a.71.71,0,0,1-.28.94L37.8,17.6a.76.76,0,0,1-.33.08.68.68,0,0,1-.62-.37.73.73,0,0,1,.29-.95l4.21-2.26A.71.71,0,0,1,42.29,14.39Z"/>
  <path class="cls-1" d="M35.45,6.92a.64.64,0,0,1,.25.88.5.5,0,0,1-.08.12l-2.64,4A.56.56,0,0,1,32,12a.68.68,0,0,1-.2-.95l0-.05,2.64-4a.67.67,0,0,1,.94-.11Z"/>
  <path class="cls-2" d="M35.29,24.44a11.58,11.58,0,0,1-3.8,8.5l-.12.12c-1.81,1.81-1.61,5.69-1.61,5.73a.82.82,0,0,1-.2.54.7.7,0,0,1-.5.2H18.55a.85.85,0,0,1-.5-.2.71.71,0,0,1-.2-.54s.2-3.92-1.61-5.73a11.47,11.47,0,1,1,19.05-8.62ZM30.42,32A10.08,10.08,0,1,0,16.2,31a11.56,11.56,0,0,0,1,1c1.73,1.77,2,4.74,2.06,6.1h9.11c0-1.36.33-4.2,1.94-5.94C30.3,32.11,30.38,32,30.42,32Z"/>
  <path class="cls-2" d="M33.84,24.4A10,10,0,0,1,30.42,32s-.12.12-.12.16c-1.61,1.74-1.9,4.58-1.94,5.94H19.25c0-1.36-.33-4.33-2.06-6.1a10.06,10.06,0,1,1,16.65-7.6Zm-1.15.42a8.87,8.87,0,0,0-8.83-8.91h-.08a.7.7,0,1,0,0,1.4h0a7.51,7.51,0,0,1,7.51,7.51.7.7,0,1,0,1.4,0Z"/>
  <path class="cls-2" d="M28.36,39.53c.95,0,1.72,1.13,1.73,2.52s-.81,2.52-1.77,2.52H19.21c-1,0-1.73-1.13-1.73-2.52s.77-2.52,1.73-2.52h9.15Zm0,2.91c.17,0,.3-.2.29-.45v0c0-.26-.15-.48-.33-.48H19.21c-.16,0-.31.15-.33.39V42c0,.27.15.48.33.48h9.15Z"/>
  <path class="cls-2" d="M28.65,42a.42.42,0,0,1-.27.48H19.21c-.18,0-.33-.22-.33-.48h0c0-.24.1-.46.27-.48h9.17c.18,0,.33.21.33.48Z"/>
  <path class="cls-2" d="M27,44.05a1.94,1.94,0,0,1,1.73,2.11v.05A2,2,0,0,1,27,48.37H20.57a2.21,2.21,0,0,1,0-4.32Zm.33,2.11a.38.38,0,0,0-.33-.41H20.57a.32.32,0,0,0-.33.33v.08a.36.36,0,0,0,.31.41H27a.38.38,0,0,0,.33-.41Z"/>
  <path class="cls-2" d="M27,45.75a.42.42,0,0,1,0,.82H20.57c-.18,0-.32-.16-.33-.38v0a.35.35,0,0,1,.27-.41H27Z"/>
  <path class="cls-3" d="M24.49,4.08V8.86a.7.7,0,0,1-.7.7h0a.72.72,0,0,1-.7-.7V4.08a.71.71,0,0,1,1.41,0Z"/>
  <path class="cls-1" d="M15.8,11.88a.71.71,0,0,1-.37.12.66.66,0,0,1-.62-.33l-2.56-4a.73.73,0,0,1,.21-1,.72.72,0,0,1,1,.2l2.54,4A.72.72,0,0,1,15.8,11.88Z"/>
  <path class="cls-1" d="M10.72,17.31a.68.68,0,0,1-.62.37.94.94,0,0,1-.33-.08L5.6,15.33a.64.64,0,0,1-.33-.84.31.31,0,0,1,.05-.1.71.71,0,0,1,.94-.29l4.17,2.26A.73.73,0,0,1,10.72,17.31Z"/>
</svg>
