<svg id="Layer_1" data-name="Layer 1" xmlns="http://www.w3.org/2000/svg" width="49" height="52" viewBox="0 0 49 52">
  <defs>
    <style>
      .cls-1 {
        fill: #fff;
      }
    </style>
  </defs>
  <g>
    <path class="cls-1" d="M42.29,14.39a.71.71,0,0,1-.28.94L37.8,17.6a.8.8,0,0,1-.33.08.68.68,0,0,1-.62-.37.73.73,0,0,1,.29-.95l4.21-2.26A.71.71,0,0,1,42.29,14.39Z"/>
    <path class="cls-1" d="M35.45,6.92a.65.65,0,0,1,.17,1l-2.64,4a.66.66,0,0,1-.58.33A.68.68,0,0,1,32,12a.69.69,0,0,1-.17-1l2.64-4A.67.67,0,0,1,35.45,6.92Z"/>
    <path class="cls-1" d="M35.29,24.44a11.59,11.59,0,0,1-3.8,8.5l-.12.12c-1.81,1.81-1.61,5.69-1.61,5.73a.81.81,0,0,1-.2.54.71.71,0,0,1-.5.2H18.55a.79.79,0,0,1-.5-.2.7.7,0,0,1-.2-.54s.2-3.92-1.61-5.73a11.47,11.47,0,1,1,19.05-8.62ZM30.42,32a10.08,10.08,0,1,0-13.23,0c1.73,1.77,2,4.74,2.06,6.1h9.11c0-1.36.33-4.2,1.94-5.94C30.3,32.11,30.38,32,30.42,32Z"/>
    <path class="cls-1" d="M33.84,24.4A10,10,0,0,1,30.42,32s-.12.12-.12.16c-1.61,1.74-1.9,4.58-1.94,5.94H19.25c0-1.36-.33-4.33-2.06-6.1A10.06,10.06,0,1,1,33.84,24.4Zm-1.15.42a8.87,8.87,0,0,0-8.91-8.91.7.7,0,1,0,0,1.4,7.51,7.51,0,0,1,7.51,7.51.7.7,0,1,0,1.4,0Z"/>
    <path class="cls-1" d="M28.36,40.32a1.74,1.74,0,0,1,1.73,1.73,1.77,1.77,0,0,1-1.77,1.73H19.21a1.73,1.73,0,1,1,0-3.46Zm0,2a.3.3,0,0,0,.29-.33.33.33,0,0,0-.33-.33H19.21a.3.3,0,0,0-.33.33.33.33,0,0,0,.33.33Z"/>
    <path class="cls-1" d="M28.65,42a.3.3,0,0,1-.29.33H19.21a.33.33,0,0,1-.33-.33.3.3,0,0,1,.33-.33h9.11A.33.33,0,0,1,28.65,42Z"/>
    <path class="cls-1" d="M27,44.48a1.71,1.71,0,0,1,1.73,1.73A1.74,1.74,0,0,1,27,47.94H20.57a1.73,1.73,0,0,1,0-3.46Zm.33,1.69a.33.33,0,0,0-.33-.33H20.57a.3.3,0,0,0-.33.33.32.32,0,0,0,.33.33H27A.33.33,0,0,0,27.33,46.17Z"/>
    <path class="cls-1" d="M27,45.84a.33.33,0,0,1,0,.66H20.57a.32.32,0,0,1-.33-.33.3.3,0,0,1,.33-.33Z"/>
    <path class="cls-1" d="M24.49,4.08V8.86a.7.7,0,0,1-.71.7.72.72,0,0,1-.7-.7V4.08a.71.71,0,0,1,1.41,0Z"/>
    <path class="cls-1" d="M16,10.88a.72.72,0,0,1-.2,1,.7.7,0,0,1-.37.12.67.67,0,0,1-.62-.33l-2.56-4a.73.73,0,0,1,.21-1,.72.72,0,0,1,1,.2Z"/>
    <path class="cls-1" d="M10.43,16.36a.73.73,0,0,1,.29.95.68.68,0,0,1-.62.37.94.94,0,0,1-.33-.08L5.6,15.33a.64.64,0,0,1-.28-.94.71.71,0,0,1,.94-.29Z"/>
  </g>
</svg>
