<svg id="greenflag" xmlns="http://www.w3.org/2000/svg" width="24" height="24" viewBox="0 0 24 24">
  <defs>
    <style>
      .cls-1 {
        fill: #fff;
      }
    </style>
  </defs>
  <g>
    <polygon class="cls-1" points="12 7.59 12 10.41 14.02 9.19 12 7.59"/>
    <path class="cls-1" d="M12,1.27A8.06,8.06,0,0,0,4,9.32v5.36a8.05,8.05,0,0,0,16.1,0V9.32A8.06,8.06,0,0,0,12,1.27Zm4.14,14.08L11.67,19a.89.89,0,0,1-1.26-.14.87.87,0,0,1-.2-.56v-4.1L9.07,15.3a.88.88,0,0,1-1.26-.05.9.9,0,0,1,0-1.22l2-2L7.79,9.91a.89.89,0,0,1,0-1.26A.9.9,0,0,1,9,8.62l0,0,1.15,1.16V5.74a.89.89,0,0,1,.9-.89.86.86,0,0,1,.55.19l4.47,3.55a.88.88,0,0,1,.15,1.25,1.21,1.21,0,0,1-.24.21L12.86,12,16,13.89a.88.88,0,0,1,.3,1.22.91.91,0,0,1-.2.24Z"/>
    <polygon class="cls-1" points="12 16.39 14.02 14.76 12 13.55 12 16.39"/>
  </g>
</svg>
