<svg id="Layer_1" data-name="Layer 1" xmlns="http://www.w3.org/2000/svg" width="110.48" height="83.03" viewBox="0 0 110.48 83.03">
  <defs>
    <style>
      .cls-1 {
        fill: #fff;
      }

      .cls-2 {
        fill: none;
        stroke: #fff;
        stroke-width: 9px;
      }
    </style>
  </defs>
  <path class="cls-1" d="M16.26,63.91c10.58-9.31,30-9.31,40.62,0H73.39a1.69,1.69,0,0,1,1.69,1.69V82.53a1.69,1.69,0,0,1-1.69,1.69H36.57a2.19,2.19,0,0,0-1.69.84l-1.69,1.7a2.22,2.22,0,0,1-1.7.84H26.41a2.2,2.2,0,0,1-1.69-.84L23,85.06a2.2,2.2,0,0,0-1.69-.84H18a1.69,1.69,0,0,1-1.69-1.69Z" transform="translate(-16.26 -11.24)"/>
  <path class="cls-1" d="M104.74,50.26a22,22,0,1,0,22,22A22,22,0,0,0,104.74,50.26Zm9.9,7.86a3,3,0,1,1,0,4.25h0A3,3,0,0,1,114.64,58.12Zm-9.9-5.86a3,3,0,1,1-3,3A3,3,0,0,1,104.74,52.26ZM90.6,58.12a3,3,0,1,1,0,4.25h0A3,3,0,0,1,90.6,58.12ZM87.74,75.26a3,3,0,1,1,3-3A3,3,0,0,1,87.74,75.26Zm7.1,11.14a3,3,0,1,1,0-4.24h0A3,3,0,0,1,94.84,86.4Zm9.9,5.86a3,3,0,1,1,3-3A3,3,0,0,1,104.74,92.26Zm0-8a12,12,0,1,1,12-12A12,12,0,0,1,104.74,84.26Zm14.14,2.14a3,3,0,1,1,0-4.24h0A3,3,0,0,1,118.88,86.4Zm2.86-11.14a3,3,0,1,1,3-3A3,3,0,0,1,121.74,75.26Z" transform="translate(-16.26 -11.24)"/>
  <g>
    <path class="cls-2" d="M42.51,29.74c6.31-8,16.44-14,27.46-14,18.28,0,33.11,12.2,33.11,27.26" transform="translate(-16.26 -11.24)"/>
    <polygon class="cls-1" points="40.53 20.57 19.58 36.01 16.67 10.15 40.53 20.57"/>
  </g>
</svg>
