<svg id="Layer_1" data-name="Layer 1" xmlns="http://www.w3.org/2000/svg" width="50" height="50" viewBox="0 0 50 50">
  <defs>
    <style>
      .cls-1 {
        fill: #fff;
      }
    </style>
  </defs>
  <path class="cls-1" d="M45.13,20H4.87A2.88,2.88,0,0,0,2,22.87v4.26A2.88,2.88,0,0,0,4.87,30H45.13A2.88,2.88,0,0,0,48,27.13V22.87A2.88,2.88,0,0,0,45.13,20ZM8,28a3,3,0,1,1,3-3A3,3,0,0,1,8,28Zm8.5,0a3,3,0,1,1,3-3A3,3,0,0,1,16.5,28ZM25,28a3,3,0,1,1,3-3A3,3,0,0,1,25,28Zm8.5,0a3,3,0,1,1,3-3A3,3,0,0,1,33.5,28ZM42,28a3,3,0,1,1,3-3A3,3,0,0,1,42,28Z"/>
</svg>
