<svg id="Capa_1" data-name="Capa 1" xmlns="http://www.w3.org/2000/svg" width="384" height="512" viewBox="0 0 384 512">
  <defs>
    <style>
      .cls-1 {
        fill: #fff;
      }
    </style>
  </defs>
  <g>
    <polygon class="cls-1" points="192.01 150.81 192.01 218.09 240.07 188.91 192.01 150.81"/>
    <path class="cls-1" d="M256,0C150.12,0,64,86.14,64,192V320c0,105.86,86.12,192,192,192s192-86.14,192-192V192C448,86.14,361.88,0,256,0Zm98.73,335.85L248.06,421.93a21.33,21.33,0,0,1-34.73-16.6V307.5l-27.2,27.22A21.34,21.34,0,0,1,156,304.53l48.62-48.62L155.5,206.25a21.34,21.34,0,1,1,30.33-30l27.5,27.84v-97.4a21.35,21.35,0,0,1,34.58-16.73l106.67,84.59a21.32,21.32,0,0,1-2.18,34.94l-75.81,46L352.32,301a21.34,21.34,0,0,1,2.41,34.9Z" transform="translate(-64)"/>
    <polygon class="cls-1" points="192.01 360.7 240.18 321.83 192.01 292.92 192.01 360.7"/>
  </g>
</svg>
